<svg xmlns="http://www.w3.org/2000/svg" viewBox="0 0 200 200" fill="none"><defs><radialGradient id="b" cx="0.38" cy="0.3" r="0.8"><stop offset="0" stop-color="#E9D5FF"/><stop offset="0.4" stop-color="#A78BFA"/><stop offset="0.8" stop-color="#7C3AED"/><stop offset="1" stop-color="#5B21B6"/></radialGradient></defs><ellipse cx="100" cy="192" rx="46" ry="6" fill="#8B5CF6" opacity="0.3"/><rect x="18" y="40" width="10" height="5" rx="2" transform="rotate(30 23 42)" fill="#F0ABFC"/><rect x="14" y="150" width="10" height="5" rx="2" transform="rotate(-20 19 152)" fill="#FBBF24"/><rect x="56" y="16" width="10" height="5" rx="2" transform="rotate(-35 61 18)" fill="#38BDF8"/><rect x="176" y="150" width="10" height="5" rx="2" transform="rotate(40 181 152)" fill="#C084FC"/><rect x="160" y="18" width="10" height="5" rx="2" transform="rotate(15 165 20)" fill="#34D399"/><circle cx="186" cy="104" r="3.5" fill="#FBBF24"/><circle cx="14" cy="100" r="3.5" fill="#F0ABFC"/><ellipse cx="34" cy="74" rx="9" ry="15" transform="rotate(-35 34 74)" fill="#7C3AED"/><ellipse cx="166" cy="74" rx="9" ry="15" transform="rotate(35 166 74)" fill="#7C3AED"/><path d="M100 47 C98 32 112 24 118 32 C124 40 112 46 108 38 C104 28 118 18 130 20" stroke="#C084FC" stroke-width="5" stroke-linecap="round"/><path d="M134 11 C135 16 137 18 142 19 C137 20 135 22 134 27 C133 22 131 20 126 19 C131 18 133 16 134 11 Z" fill="#FBBF24"/><path d="M62 150 L46 180 L84 166 Z" fill="url(#b)" stroke="#7C3AED" stroke-width="6" stroke-linejoin="round"/><circle cx="100" cy="108" r="62" fill="url(#b)"/><circle cx="100" cy="108" r="61" stroke="#F0ABFC" stroke-opacity="0.5" stroke-width="2"/><ellipse cx="76" cy="72" rx="20" ry="10" transform="rotate(-28 76 72)" fill="#FFFFFF" opacity="0.35"/><ellipse cx="66" cy="123" rx="10" ry="6" fill="#F0ABFC" opacity="0.9"/><ellipse cx="134" cy="123" rx="10" ry="6" fill="#F0ABFC" opacity="0.9"/><path d="M80 89 C81 97 84 100 92 101 C84 102 81 105 80 113 C79 105 76 102 68 101 C76 100 79 97 80 89 Z" fill="#FBBF24" stroke="#1A1030" stroke-width="2" stroke-linejoin="round"/><path d="M120 89 C121 97 124 100 132 101 C124 102 121 105 120 113 C119 105 116 102 108 101 C116 100 119 97 120 89 Z" fill="#FBBF24" stroke="#1A1030" stroke-width="2" stroke-linejoin="round"/><path d="M86 120 Q100 142 114 120 Z" fill="#1A1030" stroke="#1A1030" stroke-width="3" stroke-linejoin="round"/><ellipse cx="100" cy="131" rx="6" ry="3.5" fill="#FB7185"/></svg>
